<svg width="32" height="32" viewBox="0 0 32 32" fill="none" xmlns="http://www.w3.org/2000/svg">
<g id="Frame">
<g id="Group">
<g id="Layer 2">
<path id="Vector" d="M27.7069 23.293C27.5194 23.1055 27.2651 23.0002 26.9999 23.0002C26.7348 23.0002 26.4804 23.1055 26.2929 23.293L24.9999 24.586V19C24.9999 18.7348 24.8946 18.4804 24.707 18.2929C24.5195 18.1054 24.2651 18 23.9999 18C23.7347 18 23.4803 18.1054 23.2928 18.2929C23.1053 18.4804 22.9999 18.7348 22.9999 19V24.586L21.7069 23.293C21.5183 23.1108 21.2657 23.01 21.0035 23.0123C20.7413 23.0146 20.4905 23.1198 20.3051 23.3052C20.1197 23.4906 20.0145 23.7414 20.0122 24.0036C20.01 24.2658 20.1108 24.5184 20.2929 24.707L23.2929 27.707C23.4804 27.8945 23.7348 27.9998 23.9999 27.9998C24.2651 27.9998 24.5194 27.8945 24.7069 27.707L27.7069 24.707C27.8944 24.5195 27.9997 24.2652 27.9997 24C27.9997 23.7348 27.8944 23.4805 27.7069 23.293Z" fill="#4FD9FF"/>
<g id="Group_2">
<path id="Vector_2" d="M16 12C22.0751 12 27 9.76142 27 7C27 4.23858 22.0751 2 16 2C9.92487 2 5 4.23858 5 7C5 9.76142 9.92487 12 16 12Z" fill="#4FD9FF"/>
<path id="Vector_3" d="M21 20.52V19C20.999 18.2902 21.2502 17.6031 21.7087 17.0612C22.1672 16.5193 22.8032 16.1579 23.5034 16.0414C24.2036 15.9249 24.9225 16.0609 25.5317 16.4251C26.141 16.7893 26.6011 17.3581 26.83 18.03C26.891 17.9889 26.9479 17.942 27 17.89V10.97C24.53 13.03 20.16 14 16 14C11.84 14 7.47 13.03 5 10.97V17.89C6.78 19.58 10.81 21 16 21C17.6784 21.0055 19.3533 20.8448 21 20.52ZM18.88 26.12C18.6001 25.8426 18.3782 25.5123 18.2271 25.1484C18.0761 24.7844 17.9989 24.3941 18 24C17.9981 23.6264 18.0695 23.2561 18.21 22.91C17.49 22.97 16.76 23 16 23C11.49 23 7.54 21.98 5 20.37V25C5 28.25 10.67 30 16 30C18.0228 30.0123 20.0378 29.75 21.99 29.22C21.9509 29.1894 21.9141 29.156 21.88 29.12L18.88 26.12Z" fill="#4FD9FF"/>
</g>
</g>
</g>
</g>
</svg>
