<svg width="32" height="32" viewBox="0 0 32 32" fill="none" xmlns="http://www.w3.org/2000/svg">
<g id="Frame">
<g id="Group">
<path id="Vector" fill-rule="evenodd" clip-rule="evenodd" d="M4.04206 13.2008L9.92319 8.05356C9.83959 7.82487 9.79696 7.58324 9.79725 7.33975C9.79725 6.193 10.7269 5.26344 11.8736 5.26344C12.9984 5.26344 13.9142 6.15781 13.9489 7.27419L18.5971 8.90156C18.9779 8.4545 19.5449 8.17094 20.1782 8.17094C20.5228 8.1704 20.8622 8.25607 21.1653 8.42013L26.5239 3.84169C26.446 3.62005 26.4062 3.38677 26.4064 3.15181C26.4064 2.00513 27.3361 1.0755 28.4827 1.0755C29.6296 1.0755 30.5592 2.00513 30.5592 3.15181C30.5592 4.29863 29.6296 5.22825 28.4827 5.22825C28.1381 5.22878 27.7988 5.14312 27.4958 4.97906L22.1371 9.5575C22.215 9.77914 22.2548 10.0124 22.2546 10.2474C22.2546 11.3941 21.3249 12.3237 20.1781 12.3237C19.0534 12.3237 18.1376 11.4293 18.1029 10.313L13.4547 8.68563C13.0738 9.13269 12.5069 9.41625 11.8736 9.41625C11.5371 9.41672 11.2056 9.33504 10.9079 9.17831L5.02675 14.3256C5.11035 14.5543 5.15298 14.7959 5.15269 15.0394C5.15269 16.1862 4.22306 17.1157 3.07625 17.1157C1.92963 17.1156 1 16.1861 1 15.0393C1 13.8924 1.92963 12.9629 3.07631 12.9629C3.41279 12.9624 3.7443 13.0441 4.04206 13.2008ZM26.9032 9.32869C26.3869 9.32869 25.9657 9.74981 25.9657 10.2662V29.3992C25.9657 29.9156 26.3869 30.3367 26.9032 30.3367H30.0625C30.5789 30.3367 31.0001 29.9156 31.0001 29.3992V10.2662C31.0001 9.74981 30.579 9.32869 30.0625 9.32869H26.9032ZM18.5986 16.9743C18.0822 16.9743 17.6611 17.3954 17.6611 17.9118V29.5952C17.6611 30.1116 18.0823 30.5327 18.5986 30.5327H21.7579C22.2743 30.5327 22.6954 30.1116 22.6954 29.5952V17.9118C22.6954 17.3954 22.2743 16.9743 21.7579 16.9743H18.5986ZM10.294 14.2295C9.77756 14.2295 9.35644 14.6506 9.35644 15.167V29.7912C9.35644 30.3076 9.7775 30.7287 10.294 30.7287H13.4532C13.9696 30.7287 14.3907 30.3076 14.3907 29.7912V15.167C14.3907 14.6506 13.9696 14.2295 13.4532 14.2295H10.294ZM1.98937 22.2993H5.14856C5.66494 22.2993 6.08612 22.7204 6.08612 23.2368V29.9871C6.08612 30.5035 5.66494 30.9246 5.14856 30.9246H1.98937C1.473 30.9246 1.05181 30.5035 1.05181 29.9871V23.2368C1.05188 22.7204 1.47306 22.2993 1.98937 22.2993Z" fill="url(#paint0_linear_22_172)"/>
</g>
</g>
<defs>
<linearGradient id="paint0_linear_22_172" x1="16" y1="1.0755" x2="16" y2="30.9246" gradientUnits="userSpaceOnUse">
<stop stop-color="#4FD9FF"/>
<stop offset="1" stop-color="#22A3EA"/>
</linearGradient>
</defs>
</svg>
