<svg width="32" height="32" viewBox="0 0 32 32" fill="none" xmlns="http://www.w3.org/2000/svg">
<g id="Frame">
<g id="Group">
<g id="Layer 2">
<path id="Vector" d="M11.9998 10.6667C11.6462 10.6667 11.3071 10.5262 11.057 10.2761C10.807 10.0261 10.6665 9.68696 10.6665 9.33333C10.6665 8.97971 10.807 8.64057 11.057 8.39052C11.3071 8.14048 11.6462 8 11.9998 8H28.7732C29.1268 8 29.4659 8.14048 29.716 8.39052C29.966 8.64057 30.1065 8.97971 30.1065 9.33333C30.1065 9.68696 29.966 10.0261 29.716 10.2761C29.4659 10.5262 29.1268 10.6667 28.7732 10.6667H11.9998Z" fill="url(#paint0_linear_22_147)"/>
<path id="Vector_2" d="M22.6666 17.3333C22.4029 17.3333 22.1452 17.255 21.926 17.1085C21.7068 16.962 21.5359 16.7538 21.435 16.5102C21.3341 16.2666 21.3077 15.9986 21.3592 15.74C21.4106 15.4814 21.5375 15.2438 21.7239 15.0573L27.4479 9.33333L21.7239 3.60933C21.5966 3.48634 21.495 3.33921 21.4251 3.17654C21.3553 3.01387 21.3185 2.83891 21.3169 2.66187C21.3154 2.48483 21.3491 2.30926 21.4162 2.14539C21.4832 1.98153 21.5822 1.83266 21.7074 1.70747C21.8326 1.58228 21.9815 1.48328 22.1453 1.41624C22.3092 1.3492 22.4848 1.31546 22.6618 1.317C22.8389 1.31854 23.0138 1.35532 23.1765 1.4252C23.3392 1.49508 23.4863 1.59665 23.6093 1.724L29.3333 7.448C29.8332 7.94807 30.114 8.62623 30.114 9.33333C30.114 10.0404 29.8332 10.7186 29.3333 11.2187L23.6093 16.9427C23.4859 17.067 23.339 17.1656 23.1772 17.2327C23.0153 17.2997 22.8418 17.334 22.6666 17.3333Z" fill="url(#paint1_linear_22_147)"/>
<g id="Group_2">
<path id="Vector_3" d="M3.2264 24C2.87278 24 2.53364 23.8595 2.28359 23.6095C2.03354 23.3594 1.89307 23.0203 1.89307 22.6667C1.89307 22.313 2.03354 21.9739 2.28359 21.7239C2.53364 21.4738 2.87278 21.3333 3.2264 21.3333H19.9997C20.3534 21.3333 20.6925 21.4738 20.9425 21.7239C21.1926 21.9739 21.3331 22.313 21.3331 22.6667C21.3331 23.0203 21.1926 23.3594 20.9425 23.6095C20.6925 23.8595 20.3534 24 19.9997 24H3.2264Z" fill="url(#paint2_linear_22_147)"/>
<path id="Vector_4" d="M9.33317 30.6667C9.15799 30.6673 8.98444 30.6331 8.82261 30.566C8.66077 30.4989 8.51389 30.4004 8.39051 30.276L2.66651 24.552C2.16658 24.0519 1.88574 23.3738 1.88574 22.6667C1.88574 21.9596 2.16658 21.2814 2.66651 20.7813L8.39051 15.0573C8.5135 14.93 8.66063 14.8284 8.8233 14.7585C8.98597 14.6887 9.16093 14.6519 9.33797 14.6503C9.51501 14.6488 9.69058 14.6825 9.85445 14.7496C10.0183 14.8166 10.1672 14.9156 10.2924 15.0408C10.4176 15.166 10.5166 15.3149 10.5836 15.4787C10.6506 15.6426 10.6844 15.8182 10.6828 15.9952C10.6813 16.1722 10.6445 16.3472 10.5746 16.5099C10.5048 16.6725 10.4032 16.8197 10.2758 16.9427L4.55184 22.6667L10.2758 28.3907C10.4623 28.5771 10.5892 28.8147 10.6406 29.0733C10.692 29.3319 10.6656 29.5999 10.5647 29.8435C10.4639 30.0871 10.293 30.2954 10.0738 30.4419C9.85457 30.5884 9.59684 30.6666 9.33317 30.6667Z" fill="url(#paint3_linear_22_147)"/>
</g>
</g>
</g>
</g>
<defs>
<linearGradient id="paint0_linear_22_147" x1="20.3865" y1="8" x2="20.3865" y2="10.6667" gradientUnits="userSpaceOnUse">
<stop stop-color="#4FD9FF"/>
<stop offset="1" stop-color="#22A3EA"/>
</linearGradient>
<linearGradient id="paint1_linear_22_147" x1="25.7155" y1="1.31695" x2="25.7155" y2="17.3333" gradientUnits="userSpaceOnUse">
<stop stop-color="#4FD9FF"/>
<stop offset="1" stop-color="#22A3EA"/>
</linearGradient>
<linearGradient id="paint2_linear_22_147" x1="11.6131" y1="21.3333" x2="11.6131" y2="24" gradientUnits="userSpaceOnUse">
<stop stop-color="#4FD9FF"/>
<stop offset="1" stop-color="#22A3EA"/>
</linearGradient>
<linearGradient id="paint3_linear_22_147" x1="6.28432" y1="14.6503" x2="6.28432" y2="30.6667" gradientUnits="userSpaceOnUse">
<stop stop-color="#4FD9FF"/>
<stop offset="1" stop-color="#22A3EA"/>
</linearGradient>
</defs>
</svg>
