<svg width="32" height="32" viewBox="0 0 32 32" fill="none" xmlns="http://www.w3.org/2000/svg">
<g id="Frame">
<g id="Group">
<path id="Vector" d="M11.8731 12.6272L10.3637 11.1178C9.30684 12.3335 8.67394 13.8598 8.56055 15.4666H10.6939C10.7982 14.4246 11.2085 13.4366 11.8731 12.6272ZM15.4667 10.6938V8.56052C13.8598 8.67383 12.3334 9.30674 11.1179 10.3637L12.6272 11.873C13.4366 11.2085 14.4246 10.7982 15.4667 10.6938ZM21.3061 15.4666H23.4395C23.1765 11.7754 20.2245 8.82292 16.5333 8.56052V10.6938C19.0491 10.945 21.0555 12.9509 21.3061 15.4666Z" fill="url(#paint0_linear_22_599)"/>
<path id="Vector_2" d="M16.0001 20.2667C18.3565 20.2667 20.2667 18.3564 20.2667 16C20.2667 13.6436 18.3565 11.7333 16.0001 11.7333C13.6437 11.7333 11.7334 13.6436 11.7334 16C11.7334 18.3564 13.6437 20.2667 16.0001 20.2667Z" fill="url(#paint1_linear_22_599)"/>
<path id="Vector_3" d="M16.5333 21.3061V23.4395C20.2245 23.1765 23.1771 20.2245 23.4395 16.5333H21.3061C21.0549 19.0491 19.0491 21.0555 16.5333 21.3061ZM10.6939 16.5333H8.56055C8.82348 20.2245 11.7755 23.1771 15.4667 23.4395V21.3061C12.9509 21.0549 10.9445 19.0491 10.6939 16.5333Z" fill="url(#paint2_linear_22_599)"/>
<path id="Vector_4" d="M5.8667 16C5.86772 17.624 6.25899 19.2239 7.00754 20.665C7.7561 22.1062 8.84003 23.3464 10.168 24.2811C11.9056 25.08 13.8571 25.6 16 25.6C18.143 25.6 20.0939 25.08 21.832 24.2811C23.1601 23.3464 24.2441 22.1063 24.9926 20.6651C25.7412 19.2239 26.1324 17.624 26.1334 16C26.1324 14.376 25.7412 12.776 24.9926 11.3349C24.2441 9.89371 23.1601 8.65357 21.832 7.71893C20.0944 6.91999 18.143 6.39999 16 6.39999C13.8571 6.39999 11.9062 6.91999 10.168 7.71893C8.83997 8.65357 7.75599 9.89371 7.00743 11.3349C6.25886 12.776 5.86763 14.376 5.8667 16ZM16 7.46666C20.7051 7.46666 24.5334 11.2949 24.5334 16C24.5334 20.7051 20.7051 24.5333 16 24.5333C11.295 24.5333 7.4667 20.7051 7.4667 16C7.4667 11.2949 11.295 7.46666 16 7.46666Z" fill="url(#paint3_linear_22_599)"/>
<path id="Vector_5" d="M6.61132 22.0928C5.44866 20.3019 4.80012 18.1925 4.80012 16C4.80012 13.8075 5.44866 11.6981 6.61132 9.9072C3.59852 12.2523 1.66892 15.0715 1.07959 16C1.66999 16.9296 3.59906 19.7477 6.61132 22.0928ZM25.3889 9.9072C26.5516 11.6981 27.2001 13.8075 27.2001 16C27.2001 18.1925 26.5516 20.3019 25.3889 22.0928C28.4017 19.7477 30.3313 16.9285 30.9207 16C30.3313 15.0715 28.4017 12.2523 25.3889 9.9072Z" fill="url(#paint4_linear_22_599)"/>
</g>
</g>
<defs>
<linearGradient id="paint0_linear_22_599" x1="16" y1="8.56052" x2="16" y2="15.4666" gradientUnits="userSpaceOnUse">
<stop stop-color="#4FD9FF"/>
<stop offset="1" stop-color="#22A3EA"/>
</linearGradient>
<linearGradient id="paint1_linear_22_599" x1="16.0001" y1="11.7333" x2="16.0001" y2="20.2667" gradientUnits="userSpaceOnUse">
<stop stop-color="#4FD9FF"/>
<stop offset="1" stop-color="#22A3EA"/>
</linearGradient>
<linearGradient id="paint2_linear_22_599" x1="16" y1="16.5333" x2="16" y2="23.4395" gradientUnits="userSpaceOnUse">
<stop stop-color="#4FD9FF"/>
<stop offset="1" stop-color="#22A3EA"/>
</linearGradient>
<linearGradient id="paint3_linear_22_599" x1="16" y1="6.39999" x2="16" y2="25.6" gradientUnits="userSpaceOnUse">
<stop stop-color="#4FD9FF"/>
<stop offset="1" stop-color="#22A3EA"/>
</linearGradient>
<linearGradient id="paint4_linear_22_599" x1="16.0001" y1="9.9072" x2="16.0001" y2="22.0928" gradientUnits="userSpaceOnUse">
<stop stop-color="#4FD9FF"/>
<stop offset="1" stop-color="#22A3EA"/>
</linearGradient>
</defs>
</svg>
