<svg width="169" height="58" viewBox="0 0 169 58" fill="none" xmlns="http://www.w3.org/2000/svg">
<g id="Group">
<path id="Vector" d="M167.872 44.4253C167.872 45.0593 167.747 45.6871 167.505 46.2727C167.262 46.8584 166.906 47.3904 166.457 47.8385C166.009 48.2866 165.476 48.6418 164.89 48.884C164.304 49.1261 163.676 49.2504 163.042 49.2498H4.95825C3.67698 49.2511 2.44763 48.7436 1.54057 47.8389C0.633508 46.9342 0.123008 45.7063 0.121338 44.4253V5.95185C0.123007 4.67029 0.633305 3.44178 1.54019 2.53605C2.44707 1.63033 3.6764 1.12143 4.95825 1.12109H163.04C163.675 1.12109 164.303 1.24605 164.889 1.48884C165.476 1.73162 166.008 2.08747 166.457 2.53607C166.905 2.98466 167.261 3.51721 167.504 4.10329C167.746 4.68938 167.871 5.31752 167.871 5.95185L167.872 44.4253Z" fill="#020617"/>
<path id="Vector_2" d="M163.163 57.5H163.162H4.84409H4.84347C3.72249 57.5014 2.62618 56.977 1.80272 56.0057C0.977165 55.032 0.501613 53.6949 0.5 52.286V6.72147C0.501612 5.31175 0.977021 3.97386 1.80254 2.99886C2.62595 2.02636 3.72242 1.50039 4.84409 1.5C4.84414 1.5 4.84419 1.5 4.84424 1.5L163.161 1.5C163.718 1.5 164.272 1.62956 164.793 1.88456C165.314 2.13974 165.793 2.5167 166.2 2.99863C166.608 3.4807 166.935 4.05729 167.159 4.69713C167.383 5.33696 167.499 6.02491 167.499 6.72107L167.5 52.2863C167.5 52.982 167.384 53.6695 167.16 54.3088C166.936 54.9481 166.609 55.5241 166.201 56.0055C165.794 56.4868 165.314 56.8631 164.794 57.1175C164.273 57.3718 163.719 57.5007 163.163 57.5Z" fill="#020617" stroke="#343434"/>
<path id="Vector_3" d="M163.018 0H78L111.3 58H163.018C164.603 57.9985 166.123 57.2763 167.244 55.9919C168.366 54.7075 168.997 52.9657 169 51.1483V6.85459C168.997 5.03683 168.366 3.29446 167.245 2.00952C166.123 0.724572 164.603 0.00191731 163.018 0Z" fill="url(#paint0_linear_15_49)"/>
<g id="Group 3">
<path id="Vector_4" d="M36.9596 28.0897C36.9231 24.0298 40.2846 22.0547 40.4383 21.9627C38.5346 19.1877 35.5838 18.8086 34.5469 18.7783C32.0685 18.5176 29.6646 20.2609 28.4021 20.2609C27.1145 20.2609 25.1704 18.8035 23.0751 18.8464C20.3788 18.8879 17.8564 20.4486 16.473 22.8722C13.618 27.8138 15.7473 35.0757 18.4826 39.07C19.8509 41.0275 21.4498 43.2105 23.5425 43.1336C25.5899 43.0505 26.3547 41.8299 28.8255 41.8299C31.2735 41.8299 31.9917 43.1337 34.126 43.0845C36.3234 43.0505 37.7068 41.1195 39.0272 39.1456C40.6084 36.9047 41.2434 34.6953 41.2686 34.5819C41.2182 34.5643 37.0025 32.9544 36.9596 28.0897ZM32.9278 16.1507C34.029 14.7739 34.7825 12.9008 34.5733 11C32.9795 11.0705 30.9863 12.1022 29.8385 13.4488C28.8229 14.6353 27.9158 16.5802 28.1501 18.4093C29.9405 18.5428 31.7788 17.5061 32.9278 16.1507Z" fill="white"/>
<g id="Group_2">
<path id="Vector_5" d="M66.6147 42.8526H63.7533L62.186 37.9287H56.738L55.245 42.8526H52.4592L57.8581 26.0892H61.1919L66.6147 42.8526ZM61.7135 35.8628L60.2961 31.4856C60.1461 31.0384 59.8639 29.9853 59.4506 28.3276H59.4002C59.2339 29.0406 58.9681 30.0936 58.604 31.4856L57.2105 35.8628H61.7135ZM80.4715 36.6602C80.4715 38.7159 79.9133 40.3409 78.7958 41.5338C77.7954 42.5957 76.5518 43.126 75.0689 43.126C73.4675 43.126 72.3159 42.5553 71.6166 41.4116V47.7539H68.9304V34.738C68.9304 33.4468 68.8964 32.1229 68.8309 30.765H71.1933L71.3432 32.681H71.3936C72.2894 31.2374 73.6489 30.5156 75.4733 30.5156C76.8996 30.5156 78.0902 31.0787 79.0427 32.2061C79.994 33.336 80.4715 34.8198 80.4715 36.6602ZM77.7349 36.7584C77.7349 35.5819 77.4703 34.612 76.9386 33.8474C76.3578 33.0526 75.5779 32.6545 74.6002 32.6545C73.9374 32.6545 73.3352 32.8762 72.7972 33.3133C72.2579 33.7542 71.9052 34.3298 71.7401 35.0428C71.6664 35.3094 71.6245 35.5838 71.6154 35.8603V37.877C71.6154 38.755 71.885 39.4969 72.4242 40.1041C72.9635 40.7087 73.664 41.0123 74.5258 41.0123C75.5376 41.0123 76.325 40.6205 76.8882 39.8433C77.4527 39.0636 77.7349 38.0357 77.7349 36.7584ZM94.3774 36.6602C94.3774 38.7159 93.8193 40.3409 92.7017 41.5338C91.7001 42.5957 90.4578 43.126 88.9736 43.126C87.3722 43.126 86.2206 42.5553 85.5213 41.4116V47.7539H82.8351V34.738C82.8351 33.4468 82.8011 32.1229 82.7356 30.765H85.098L85.2479 32.681H85.2983C86.1929 31.2374 87.5524 30.5156 89.378 30.5156C90.803 30.5156 91.9936 31.0787 92.9487 32.2061C93.8987 33.336 94.3774 34.8198 94.3774 36.6602ZM91.6396 36.7584C91.6396 35.5819 91.3738 34.612 90.8421 33.8474C90.2612 33.0526 89.4838 32.6545 88.5061 32.6545C87.8434 32.6545 87.2412 32.8762 86.7006 33.3133C86.1614 33.7542 85.8099 34.3298 85.6448 35.0428C85.5629 35.3753 85.5188 35.6462 85.5188 35.8603V37.877C85.5188 38.755 85.7897 39.4969 86.3264 40.1041C86.8657 40.7074 87.5662 41.0123 88.4305 41.0123C89.4435 41.0123 90.231 40.6205 90.7929 39.8433C91.3574 39.0636 91.6396 38.0357 91.6396 36.7584ZM109.925 38.1504C109.925 39.5775 109.426 40.7377 108.435 41.6333C107.344 42.6108 105.82 43.1008 103.867 43.1008C102.063 43.1008 100.617 42.7531 99.5256 42.0565L100.147 39.8181C101.325 40.516 102.619 40.8636 104.027 40.8636C105.04 40.8636 105.828 40.6344 106.39 40.1796C106.953 39.7237 107.238 39.114 107.238 38.3532C107.238 37.6717 107.002 37.1011 106.54 36.6363C106.075 36.1727 105.306 35.7406 104.226 35.3439C101.291 34.2492 99.8217 32.6482 99.8217 30.5421C99.8217 29.1665 100.341 28.0404 101.376 27.1599C102.412 26.2807 103.785 25.8411 105.494 25.8411C107.02 25.8411 108.291 26.1069 109.3 26.6372L108.626 28.8264C107.676 28.3125 106.604 28.0555 105.404 28.0555C104.457 28.0555 103.714 28.2886 103.182 28.7521C102.735 29.1665 102.508 29.6717 102.508 30.2713C102.508 30.9326 102.766 31.4818 103.28 31.9126C103.726 32.3094 104.54 32.7414 105.717 33.205C107.161 33.7869 108.222 34.4646 108.901 35.2431C109.585 36.0215 109.925 36.9927 109.925 38.1504ZM118.829 32.7805H115.868V38.6492C115.868 40.1419 116.39 40.8863 117.436 40.8863C117.916 40.8863 118.314 40.846 118.629 40.7616L118.703 42.801C118.174 42.9987 117.477 43.0983 116.614 43.0983C115.553 43.0983 114.724 42.7745 114.126 42.1271C113.53 41.4796 113.23 40.395 113.23 38.8684V32.7754H111.466V30.76H113.23V28.5468L115.868 27.7507V30.76H118.829V32.7805ZM132.162 36.7093C132.162 38.5673 131.63 40.0927 130.569 41.2856C129.459 42.5138 127.983 43.126 126.142 43.126C124.365 43.126 122.953 42.5377 121.9 41.3625C120.846 40.1847 120.32 38.7008 120.32 36.9109C120.32 35.0378 120.864 33.5035 121.949 32.3106C123.036 31.1165 124.5 30.5194 126.341 30.5194C128.115 30.5194 129.54 31.1089 130.618 32.2854C131.649 33.4267 132.162 34.9005 132.162 36.7093ZM129.377 36.771C129.377 35.6638 129.138 34.714 128.658 33.9192C128.095 32.9593 127.288 32.4794 126.244 32.4794C125.168 32.4794 124.343 32.9593 123.781 33.9192C123.299 34.714 123.06 35.6802 123.06 36.8214C123.06 37.9299 123.299 38.8822 123.781 39.6745C124.362 40.6344 125.172 41.1143 126.221 41.1143C127.248 41.1143 128.053 40.6243 128.635 39.6506C129.129 38.8369 129.377 37.8808 129.377 36.771ZM140.897 33.1269C140.618 33.0764 140.334 33.0516 140.05 33.0526C139.105 33.0526 138.375 33.4078 137.861 34.1233C137.415 34.7531 137.19 35.5492 137.19 36.5103V42.8526H134.504V34.5717C134.506 33.3028 134.48 32.034 134.426 30.7663H136.766L136.864 33.079H136.938C137.223 32.2842 137.669 31.643 138.281 31.1631C138.842 30.7437 139.523 30.5166 140.223 30.5156C140.471 30.5156 140.695 30.5333 140.894 30.5647L140.897 33.1269ZM152.911 36.2369C152.917 36.6452 152.884 37.0531 152.812 37.455H144.754C144.784 38.6492 145.174 39.5637 145.923 40.1935C146.602 40.7553 147.48 41.0375 148.559 41.0375C149.752 41.0375 150.84 40.8485 151.819 40.4668L152.24 42.3299C151.096 42.8287 149.746 43.0768 148.187 43.0768C146.312 43.0768 144.841 42.5251 143.77 41.4242C142.701 40.322 142.166 38.8406 142.166 36.9852C142.166 35.1637 142.663 33.6458 143.66 32.4353C144.703 31.1429 146.113 30.4967 147.887 30.4967C149.63 30.4967 150.949 31.1429 151.845 32.4353C152.554 33.4594 152.911 34.7291 152.911 36.2369ZM150.349 35.5404C150.368 34.743 150.192 34.0565 149.827 33.4758C149.363 32.7276 148.647 32.3547 147.688 32.3547C146.81 32.3547 146.094 32.7187 145.55 33.4493C145.103 34.03 144.837 34.7279 144.755 35.5378L150.349 35.5404Z" fill="white"/>
</g>
<g id="Group_3">
<path id="Vector_6" d="M55.9632 20.1627C55.2161 20.1627 54.5697 20.1261 54.0317 20.0644V11.9598C54.7842 11.8436 55.5446 11.7863 56.3059 11.7885C59.3865 11.7885 60.8052 13.3039 60.8052 15.774C60.8052 18.6234 59.1295 20.1627 55.9632 20.1627ZM56.4143 12.8277C55.9985 12.8277 55.6445 12.8529 55.3509 12.9134V19.0743C55.5096 19.0995 55.8146 19.1109 56.2429 19.1109C58.2614 19.1109 59.4104 17.9621 59.4104 15.8106C59.4104 13.8921 58.371 12.8277 56.4143 12.8277ZM65.2263 20.2244C63.4901 20.2244 62.365 18.9282 62.365 17.1685C62.365 15.3344 63.514 14.0269 65.3246 14.0269C67.0356 14.0269 68.1859 15.2614 68.1859 17.0715C68.1859 18.9282 67.0003 20.2244 65.2263 20.2244ZM65.2767 14.9918C64.3229 14.9918 63.7119 15.8836 63.7119 17.1307C63.7119 18.3538 64.3355 19.2456 65.2641 19.2456C66.1927 19.2456 66.8164 18.2921 66.8164 17.1055C66.8164 15.8962 66.2053 14.9918 65.2767 14.9918ZM78.0865 14.1491L76.2281 20.0896H75.0173L74.2475 17.5098C74.0561 16.8788 73.8967 16.2385 73.77 15.5914H73.7448C73.6478 16.2389 73.4638 16.8876 73.2685 17.5098L72.4495 20.0896H71.2261L69.4773 14.1491H70.8343L71.5071 16.9732C71.6659 17.6459 71.7994 18.2807 71.9103 18.8803H71.9355C72.0325 18.3803 72.1913 17.7555 72.4243 16.9858L73.2685 14.1504H74.3445L75.1521 16.9254C75.3474 17.598 75.5062 18.2581 75.6296 18.8816H75.6649C75.7506 18.2707 75.8854 17.622 76.0681 16.9254L76.79 14.1504L78.0865 14.1491ZM84.928 20.0896H83.6076V16.6785C83.6076 15.6279 83.2044 15.1014 82.4094 15.1014C81.6269 15.1014 81.089 15.774 81.089 16.5563V20.0896H79.7685V15.8471C79.7685 15.3218 79.7559 14.7588 79.7194 14.1478H80.8811L80.9428 15.0649H80.9793C81.3346 14.43 82.0553 14.0269 82.863 14.0269C84.1103 14.0269 84.9293 14.9805 84.9293 16.5324L84.928 20.0896ZM88.5692 20.0896H87.2475V11.4232H88.5692V20.0896ZM93.3835 20.2244C91.6485 20.2244 90.5221 18.9282 90.5221 17.1685C90.5221 15.3344 91.6712 14.0269 93.4805 14.0269C95.1927 14.0269 96.3418 15.2614 96.3418 17.0715C96.3431 18.9282 95.1562 20.2244 93.3835 20.2244ZM93.4326 14.9918C92.4788 14.9918 91.8678 15.8836 91.8678 17.1307C91.8678 18.3538 92.4927 19.2456 93.4187 19.2456C94.3486 19.2456 94.971 18.2921 94.971 17.1055C94.9722 15.8962 94.3624 14.9918 93.4326 14.9918ZM101.548 20.0896L101.452 19.4056H101.417C101.014 19.9561 100.425 20.2244 99.6794 20.2244C98.6147 20.2244 97.8588 19.4787 97.8588 18.476C97.8588 17.0098 99.13 16.2515 101.331 16.2515V16.1419C101.331 15.3596 100.917 14.9679 100.098 14.9679C99.5118 14.9679 98.9978 15.1152 98.5454 15.4087L98.2771 14.5408C98.8264 14.1982 99.5118 14.0269 100.317 14.0269C101.869 14.0269 102.653 14.8457 102.653 16.4845V18.6725C102.653 19.2721 102.679 19.7369 102.739 20.0909L101.548 20.0896ZM101.366 17.1307C99.8999 17.1307 99.1641 17.4859 99.1641 18.3286C99.1641 18.9521 99.5433 19.257 100.07 19.257C100.742 19.257 101.366 18.7443 101.366 18.0477V17.1307ZM109.065 20.0896L109.003 19.136H108.966C108.587 19.8566 107.95 20.2244 107.059 20.2244C105.626 20.2244 104.565 18.9647 104.565 17.1924C104.565 15.3344 105.665 14.0257 107.167 14.0257C107.962 14.0257 108.525 14.294 108.843 14.8331H108.869V11.4232H110.191V18.4886C110.191 19.063 110.205 19.6009 110.24 20.0896H109.065ZM108.869 16.5941C108.869 15.7627 108.319 15.0535 107.478 15.0535C106.499 15.0535 105.901 15.9214 105.901 17.1433C105.901 18.3412 106.522 19.1612 107.452 19.1612C108.282 19.1612 108.869 18.4395 108.869 17.5842V16.5941ZM118.571 20.2244C116.836 20.2244 115.711 18.9282 115.711 17.1685C115.711 15.3344 116.86 14.0269 118.669 14.0269C120.381 14.0269 121.531 15.2614 121.531 17.0715C121.532 18.9282 120.346 20.2244 118.571 20.2244ZM118.62 14.9918C117.668 14.9918 117.056 15.8836 117.056 17.1307C117.056 18.3538 117.68 19.2456 118.607 19.2456C119.537 19.2456 120.16 18.2921 120.16 17.1055C120.162 15.8962 119.551 14.9918 118.62 14.9918ZM128.632 20.0896H127.31V16.6785C127.31 15.6279 126.907 15.1014 126.112 15.1014C125.329 15.1014 124.793 15.774 124.793 16.5563V20.0896H123.471V15.8471C123.471 15.3218 123.458 14.7588 123.422 14.1478H124.583L124.645 15.0649H124.682C125.036 14.43 125.758 14.0257 126.564 14.0257C127.811 14.0257 128.632 14.9792 128.632 16.5311V20.0896ZM137.515 15.1392H136.063V18.0238C136.063 18.7582 136.317 19.1247 136.831 19.1247C137.064 19.1247 137.26 19.0995 137.417 19.063L137.454 20.0657C137.198 20.1639 136.855 20.213 136.429 20.213C135.389 20.213 134.766 19.6386 134.766 18.1346V15.1392H133.899V14.1491H134.766V13.0608L136.063 12.669V14.1478H137.515V15.1392ZM144.506 20.0896H143.186V16.7037C143.186 15.6405 142.784 15.1027 141.988 15.1027C141.304 15.1027 140.667 15.5675 140.667 16.5084V20.0896H139.347V11.4232H140.667V14.9918H140.693C141.109 14.3443 141.711 14.0257 142.48 14.0257C143.737 14.0257 144.506 15.0031 144.506 16.5563V20.0896ZM151.667 17.4368H147.705C147.73 18.5616 148.474 19.1965 149.577 19.1965C150.163 19.1965 150.702 19.0983 151.178 18.9156L151.384 19.8326C150.822 20.077 150.16 20.1992 149.39 20.1992C147.532 20.1992 146.432 19.0252 146.432 17.205C146.432 15.3836 147.558 14.0143 149.242 14.0143C150.76 14.0143 151.712 15.1392 151.712 16.8384C151.721 17.039 151.706 17.2398 151.667 17.4368ZM150.456 16.4958C150.456 15.5788 149.994 14.9313 149.15 14.9313C148.391 14.9313 147.791 15.5914 147.706 16.4958H150.456Z" fill="white"/>
</g>
</g>
</g>
<defs>
<linearGradient id="paint0_linear_15_49" x1="123.499" y1="58.154" x2="123.499" y2="-151.022" gradientUnits="userSpaceOnUse">
<stop stop-color="#1A1A1A" stop-opacity="0.1"/>
<stop offset="0.123" stop-color="#212121" stop-opacity="0.151"/>
<stop offset="0.308" stop-color="#353535" stop-opacity="0.227"/>
<stop offset="0.532" stop-color="#575757" stop-opacity="0.318"/>
<stop offset="0.783" stop-color="#858585" stop-opacity="0.421"/>
<stop offset="1" stop-color="#B3B3B3" stop-opacity="0.51"/>
</linearGradient>
</defs>
</svg>
