<svg width="170" height="57" viewBox="0 0 170 57" fill="none" xmlns="http://www.w3.org/2000/svg">
<g id="Group 2">
<path id="Vector" d="M163.704 56.5H6.2963C3.10282 56.5 0.5 53.6488 0.5 49.875V7.125C0.5 3.35125 3.10282 0.5 6.2963 0.5H163.704C166.897 0.5 169.5 3.35125 169.5 7.125V49.875C169.5 53.6488 166.897 56.5 163.704 56.5Z" fill="#020617" stroke="#343434"/>
<g id="Group 4">
<path id="Vector_2" d="M59.6893 15.1556C59.6893 16.163 59.4375 17.0444 58.8079 17.6741C58.0523 18.4296 57.1708 18.8074 56.0375 18.8074C54.9042 18.8074 54.0227 18.4296 53.2671 17.6741C52.5116 16.9185 52.1338 16.037 52.1338 14.9037C52.1338 13.7704 52.5116 12.8889 53.2671 12.1333C54.0227 11.3778 54.9042 11 56.0375 11C56.5412 11 57.0449 11.1259 57.5486 11.3778C58.0523 11.6296 58.4301 11.8815 58.6819 12.2593L58.0523 12.8889C57.5486 12.2593 56.919 12.0074 56.0375 12.0074C55.2819 12.0074 54.5264 12.2593 54.0227 12.8889C53.393 13.3926 53.1412 14.1481 53.1412 15.0296C53.1412 15.9111 53.393 16.6667 54.0227 17.1704C54.6523 17.6741 55.2819 18.0519 56.0375 18.0519C56.919 18.0519 57.5486 17.8 58.1782 17.1704C58.556 16.7926 58.8079 16.2889 58.8079 15.6593H56.0375V14.6519H59.6893V15.1556ZM65.4819 12.0074H62.0819V14.4H65.2301V15.2815H62.0819V17.6741H65.4819V18.6815H61.0745V11.1259H65.4819V12.0074ZM69.6375 18.6815H68.6301V12.0074H66.4893V11.1259H71.7782V12.0074H69.6375V18.6815ZM75.4301 18.6815V11.1259H76.4375V18.6815H75.4301ZM80.719 18.6815H79.7116V12.0074H77.5708V11.1259H82.7338V12.0074H80.593V18.6815H80.719ZM92.6819 17.6741C91.9264 18.4296 91.0449 18.8074 89.9116 18.8074C88.7782 18.8074 87.8967 18.4296 87.1412 17.6741C86.3856 16.9185 86.0079 16.037 86.0079 14.9037C86.0079 13.7704 86.3856 12.8889 87.1412 12.1333C87.8967 11.3778 88.7782 11 89.9116 11C91.0449 11 91.9264 11.3778 92.6819 12.1333C93.4375 12.8889 93.8153 13.7704 93.8153 14.9037C93.8153 16.037 93.4375 16.9185 92.6819 17.6741ZM87.8968 17.0444C88.4005 17.5481 89.156 17.9259 89.9116 17.9259C90.6671 17.9259 91.4227 17.6741 91.9264 17.0444C92.4301 16.5407 92.8079 15.7852 92.8079 14.9037C92.8079 14.0222 92.556 13.2667 91.9264 12.763C91.4227 12.2593 90.6671 11.8815 89.9116 11.8815C89.156 11.8815 88.4005 12.1333 87.8968 12.763C87.393 13.2667 87.0153 14.0222 87.0153 14.9037C87.0153 15.7852 87.2671 16.5407 87.8968 17.0444ZM95.2005 18.6815V11.1259H96.3338L99.9856 17.0444V11.1259H100.993V18.6815H99.9856L96.0819 12.5111V18.6815H95.2005Z" fill="white" stroke="white" stroke-width="1.18519" stroke-miterlimit="10"/>
<path id="Vector_3" d="M85.7559 29.763C82.7336 29.763 80.341 32.0297 80.341 35.1778C80.341 38.2 82.7336 40.5926 85.7559 40.5926C88.7781 40.5926 91.1707 38.326 91.1707 35.1778C91.1707 31.9037 88.7781 29.763 85.7559 29.763ZM85.7559 38.326C84.1188 38.326 82.7336 36.9408 82.7336 35.0519C82.7336 33.163 84.1188 31.7778 85.7559 31.7778C87.3929 31.7778 88.7781 33.0371 88.7781 35.0519C88.7781 36.9408 87.3929 38.326 85.7559 38.326ZM74.0447 29.763C71.0225 29.763 68.6299 32.0297 68.6299 35.1778C68.6299 38.2 71.0225 40.5926 74.0447 40.5926C77.067 40.5926 79.4596 38.326 79.4596 35.1778C79.4596 31.9037 77.067 29.763 74.0447 29.763ZM74.0447 38.326C72.4077 38.326 71.0225 36.9408 71.0225 35.0519C71.0225 33.163 72.4077 31.7778 74.0447 31.7778C75.6818 31.7778 77.067 33.0371 77.067 35.0519C77.067 36.9408 75.6818 38.326 74.0447 38.326ZM60.067 31.4V33.6667H65.4818C65.3559 34.926 64.8522 35.9334 64.2225 36.563C63.467 37.3186 62.2077 38.2 60.067 38.2C56.667 38.2 54.1485 35.5556 54.1485 32.1556C54.1485 28.7556 56.7929 26.1111 60.067 26.1111C61.8299 26.1111 63.2151 26.8667 64.2225 27.7482L65.8596 26.1111C64.4744 24.8519 62.7114 23.8445 60.1929 23.8445C55.6596 23.8445 51.7559 27.6223 51.7559 32.1556C51.7559 36.6889 55.6596 40.4667 60.1929 40.4667C62.7114 40.4667 64.4744 39.7111 65.9855 38.0741C67.4966 36.563 68.0003 34.4223 68.0003 32.7852C68.0003 32.2815 68.0003 31.7778 67.8744 31.4H60.067ZM117.237 33.163C116.734 31.9037 115.474 29.763 112.704 29.763C109.934 29.763 107.667 31.9037 107.667 35.1778C107.667 38.2 109.934 40.5926 112.956 40.5926C115.348 40.5926 116.86 39.0815 117.363 38.2L115.6 36.9408C114.971 37.8223 114.215 38.4519 112.956 38.4519C111.697 38.4519 110.941 37.9482 110.311 36.8149L117.489 33.7926L117.237 33.163ZM109.934 34.926C109.934 32.9111 111.571 31.7778 112.704 31.7778C113.585 31.7778 114.467 32.2815 114.719 32.9111L109.934 34.926ZM104.015 40.0889H106.408V24.3482H104.015V40.0889ZM100.237 30.8963C99.6077 30.2667 98.6003 29.6371 97.341 29.6371C94.6966 29.6371 92.1781 32.0297 92.1781 35.0519C92.1781 38.0741 94.5707 40.3408 97.341 40.3408C98.6003 40.3408 99.6077 39.7111 100.111 39.0815H100.237V39.8371C100.237 41.8519 99.104 42.9852 97.341 42.9852C95.9559 42.9852 94.9484 41.9778 94.6966 41.0963L92.6818 41.9778C93.3114 43.363 94.8225 45.126 97.467 45.126C100.237 45.126 102.504 43.4889 102.504 39.5852V30.0149H100.237V30.8963ZM97.467 38.326C95.8299 38.326 94.4447 36.9408 94.4447 35.0519C94.4447 33.163 95.8299 31.7778 97.467 31.7778C99.104 31.7778 100.363 33.163 100.363 35.0519C100.363 36.9408 99.104 38.326 97.467 38.326ZM128.193 24.3482H122.526V40.0889H124.919V34.1704H128.193C130.837 34.1704 133.356 32.2815 133.356 29.2593C133.356 26.2371 130.837 24.3482 128.193 24.3482ZM128.319 31.9037H124.919V26.4889H128.319C130.082 26.4889 131.089 28 131.089 29.1334C130.963 30.5186 129.956 31.9037 128.319 31.9037ZM142.8 29.6371C141.037 29.6371 139.274 30.3926 138.645 32.0297L140.785 32.9111C141.289 32.0297 142.045 31.7778 142.926 31.7778C144.185 31.7778 145.319 32.5334 145.445 33.7926V33.9186C145.067 33.6667 144.06 33.2889 143.052 33.2889C140.785 33.2889 138.519 34.5482 138.519 36.8149C138.519 38.9556 140.408 40.3408 142.423 40.3408C144.06 40.3408 144.815 39.5852 145.445 38.8297H145.571V40.0889H147.837V34.0445C147.585 31.2741 145.445 29.6371 142.8 29.6371ZM142.548 38.326C141.793 38.326 140.66 37.9482 140.66 36.9408C140.66 35.6815 142.045 35.3037 143.178 35.3037C144.185 35.3037 144.689 35.5556 145.319 35.8074C145.067 37.3186 143.808 38.326 142.548 38.326ZM155.771 30.0149L153.126 36.8149H153L150.23 30.0149H147.711L151.867 39.5852L149.474 44.8741H151.867L158.289 30.0149H155.771ZM134.615 40.0889H137.008V24.3482H134.615V40.0889Z" fill="white"/>
<g id="Group">
<path id="Vector_4" d="M13.0965 11.7555C12.7187 12.1333 12.5928 12.7629 12.5928 13.5185V41.3481C12.5928 42.1036 12.8446 42.7333 13.2224 43.111L13.3483 43.237L28.9631 27.6222V27.3703L13.0965 11.7555Z" fill="url(#paint0_linear_15_36)"/>
<path id="Vector_5" d="M34.0004 32.9111L28.8374 27.7481V27.3704L34.0004 22.2074L34.1263 22.3333L40.2967 25.8592C42.0596 26.8667 42.0596 28.5037 40.2967 29.5111L34.0004 32.9111Z" fill="url(#paint1_linear_15_36)"/>
<path id="Vector_6" d="M34.1263 32.7851L28.8374 27.4962L13.0967 43.237C13.7263 43.8666 14.6078 43.8666 15.7411 43.3629L34.1263 32.7851Z" fill="url(#paint2_linear_15_36)"/>
<path id="Vector_7" d="M34.1263 22.2074L15.7411 11.7555C14.6078 11.1259 13.7263 11.2518 13.0967 11.8814L28.8374 27.4962L34.1263 22.2074Z" fill="url(#paint3_linear_15_36)"/>
<path id="Vector_8" opacity="0.2" d="M34.0004 32.6592L15.7411 42.9851C14.7337 43.6147 13.8522 43.4888 13.2226 42.9851L13.0967 43.111L13.2226 43.237C13.8522 43.7407 14.7337 43.8666 15.7411 43.237L34.0004 32.6592Z" fill="black"/>
<path id="Vector_9" opacity="0.12" d="M13.0965 42.9851C12.7187 42.6073 12.5928 41.9777 12.5928 41.2221V41.3481C12.5928 42.1036 12.8446 42.7333 13.2224 43.111V42.9851H13.0965ZM40.2965 29.1333L34.0002 32.6592L34.1261 32.7851L40.2965 29.2592C41.178 28.7555 41.5557 28.1258 41.5557 27.4962C41.5557 28.1258 41.052 28.6295 40.2965 29.1333Z" fill="black"/>
<path id="Vector_10" opacity="0.25" d="M15.7409 11.8815L40.2965 25.8593C41.052 26.363 41.5557 26.8667 41.5557 27.4963C41.5557 26.8667 41.178 26.237 40.2965 25.7333L15.7409 11.7556C13.978 10.7482 12.5928 11.5037 12.5928 13.5185V13.6444C12.5928 11.7556 13.978 10.8741 15.7409 11.8815Z" fill="white"/>
</g>
</g>
</g>
<defs>
<linearGradient id="paint0_linear_15_36" x1="27.452" y1="13.2792" x2="6.31788" y2="34.4121" gradientUnits="userSpaceOnUse">
<stop stop-color="#00A0FF"/>
<stop offset="0.007" stop-color="#00A1FF"/>
<stop offset="0.26" stop-color="#00BEFF"/>
<stop offset="0.512" stop-color="#00D2FF"/>
<stop offset="0.76" stop-color="#00DFFF"/>
<stop offset="1" stop-color="#00E3FF"/>
</linearGradient>
<linearGradient id="paint1_linear_15_36" x1="42.6061" y1="27.4975" x2="12.1358" y2="27.4975" gradientUnits="userSpaceOnUse">
<stop stop-color="#FFE000"/>
<stop offset="0.409" stop-color="#FFBD00"/>
<stop offset="0.775" stop-color="#FFA500"/>
<stop offset="1" stop-color="#FF9C00"/>
</linearGradient>
<linearGradient id="paint2_linear_15_36" x1="31.264" y1="30.3875" x2="2.60579" y2="59.0457" gradientUnits="userSpaceOnUse">
<stop stop-color="#FF3A44"/>
<stop offset="1" stop-color="#C31162"/>
</linearGradient>
<linearGradient id="paint3_linear_15_36" x1="9.1892" y1="2.53269" x2="21.987" y2="15.3305" gradientUnits="userSpaceOnUse">
<stop stop-color="#32A071"/>
<stop offset="0.069" stop-color="#2DA771"/>
<stop offset="0.476" stop-color="#15CF74"/>
<stop offset="0.801" stop-color="#06E775"/>
<stop offset="1" stop-color="#00F076"/>
</linearGradient>
</defs>
</svg>
